<svg xmlns="http://www.w3.org/2000/svg" xmlns:xlink="http://www.w3.org/1999/xlink" width="80" zoomAndPan="magnify" viewBox="0 0 60 60" height="80" preserveAspectRatio="xMidYMid meet" version="1.0"><defs><clipPath id="fd7ca7f0b7"><path d="M 2.023438 3.382812 L 43 3.382812 L 43 38.632812 L 2.023438 38.632812 Z M 2.023438 3.382812 " clip-rule="nonzero"/></clipPath><clipPath id="de23521261"><path d="M 22.484375 21.128906 L 57.734375 21.128906 L 57.734375 56.378906 L 22.484375 56.378906 Z M 22.484375 21.128906 " clip-rule="nonzero"/></clipPath></defs><g clip-path="url(#fd7ca7f0b7)"><path fill="#ffbd59" d="M 42.554688 35.699219 L 23.953125 4.402344 L 23.945312 4.402344 C 23.59375 3.796875 22.945312 3.382812 22.195312 3.382812 C 21.519531 3.382812 20.929688 3.714844 20.558594 4.21875 L 20.554688 4.21875 L 20.542969 4.238281 C 20.472656 4.335938 20.417969 4.4375 20.367188 4.546875 L 2.402344 35.714844 C 2.1875 36.035156 2.0625 36.421875 2.0625 36.839844 C 2.0625 37.960938 2.96875 38.867188 4.089844 38.867188 L 40.878906 38.867188 C 42 38.867188 42.90625 37.960938 42.90625 36.839844 C 42.90625 36.417969 42.777344 36.027344 42.554688 35.699219 Z M 42.554688 35.699219 " fill-opacity="1" fill-rule="nonzero"/></g><g clip-path="url(#de23521261)"><path fill="#5170ff" d="M 57.96875 38.871094 C 57.96875 39.449219 57.941406 40.03125 57.882812 40.609375 C 57.828125 41.1875 57.742188 41.761719 57.628906 42.332031 C 57.515625 42.902344 57.375 43.464844 57.207031 44.019531 C 57.035156 44.574219 56.839844 45.121094 56.617188 45.660156 C 56.398438 46.195312 56.148438 46.71875 55.875 47.234375 C 55.601562 47.746094 55.300781 48.242188 54.980469 48.726562 C 54.65625 49.210938 54.3125 49.675781 53.941406 50.125 C 53.574219 50.574219 53.183594 51.003906 52.773438 51.414062 C 52.363281 51.824219 51.933594 52.214844 51.484375 52.585938 C 51.035156 52.953125 50.566406 53.296875 50.085938 53.621094 C 49.601562 53.945312 49.101562 54.242188 48.589844 54.515625 C 48.078125 54.789062 47.554688 55.039062 47.015625 55.261719 C 46.480469 55.484375 45.933594 55.679688 45.378906 55.847656 C 44.820312 56.015625 44.257812 56.15625 43.6875 56.269531 C 43.117188 56.382812 42.542969 56.46875 41.964844 56.527344 C 41.386719 56.582031 40.808594 56.613281 40.226562 56.613281 C 39.644531 56.613281 39.066406 56.582031 38.488281 56.527344 C 37.910156 56.46875 37.335938 56.382812 36.765625 56.269531 C 36.195312 56.15625 35.632812 56.015625 35.078125 55.847656 C 34.519531 55.679688 33.976562 55.484375 33.4375 55.261719 C 32.902344 55.039062 32.375 54.789062 31.863281 54.515625 C 31.351562 54.242188 30.855469 53.945312 30.371094 53.621094 C 29.886719 53.296875 29.421875 52.953125 28.972656 52.585938 C 28.523438 52.214844 28.09375 51.824219 27.683594 51.414062 C 27.269531 51.003906 26.882812 50.574219 26.511719 50.125 C 26.144531 49.675781 25.796875 49.210938 25.476562 48.726562 C 25.152344 48.242188 24.855469 47.746094 24.582031 47.234375 C 24.304688 46.71875 24.058594 46.195312 23.835938 45.660156 C 23.613281 45.121094 23.417969 44.574219 23.25 44.019531 C 23.082031 43.464844 22.941406 42.902344 22.824219 42.332031 C 22.710938 41.761719 22.628906 41.1875 22.570312 40.609375 C 22.515625 40.03125 22.484375 39.449219 22.484375 38.871094 C 22.484375 38.289062 22.515625 37.707031 22.570312 37.128906 C 22.628906 36.550781 22.710938 35.976562 22.824219 35.410156 C 22.941406 34.839844 23.082031 34.273438 23.25 33.71875 C 23.417969 33.164062 23.613281 32.617188 23.835938 32.078125 C 24.058594 31.542969 24.304688 31.019531 24.582031 30.507812 C 24.855469 29.992188 25.152344 29.496094 25.476562 29.011719 C 25.796875 28.53125 26.144531 28.0625 26.511719 27.613281 C 26.882812 27.164062 27.269531 26.734375 27.683594 26.324219 C 28.09375 25.914062 28.523438 25.523438 28.972656 25.15625 C 29.421875 24.785156 29.886719 24.441406 30.371094 24.117188 C 30.855469 23.792969 31.351562 23.496094 31.863281 23.222656 C 32.375 22.949219 32.902344 22.699219 33.4375 22.476562 C 33.976562 22.253906 34.519531 22.058594 35.078125 21.890625 C 35.632812 21.722656 36.195312 21.582031 36.765625 21.46875 C 37.335938 21.355469 37.910156 21.269531 38.488281 21.210938 C 39.066406 21.15625 39.644531 21.128906 40.226562 21.128906 C 40.808594 21.128906 41.386719 21.15625 41.964844 21.210938 C 42.542969 21.269531 43.117188 21.355469 43.6875 21.46875 C 44.257812 21.582031 44.820312 21.722656 45.378906 21.890625 C 45.933594 22.058594 46.480469 22.253906 47.015625 22.476562 C 47.554688 22.699219 48.078125 22.949219 48.589844 23.222656 C 49.101562 23.496094 49.601562 23.792969 50.085938 24.117188 C 50.566406 24.441406 51.035156 24.785156 51.484375 25.15625 C 51.933594 25.523438 52.363281 25.914062 52.773438 26.324219 C 53.183594 26.734375 53.574219 27.164062 53.941406 27.613281 C 54.3125 28.0625 54.65625 28.53125 54.980469 29.011719 C 55.300781 29.496094 55.601562 29.992188 55.875 30.507812 C 56.148438 31.019531 56.398438 31.542969 56.617188 32.078125 C 56.839844 32.617188 57.035156 33.164062 57.207031 33.71875 C 57.375 34.273438 57.515625 34.839844 57.628906 35.410156 C 57.742188 35.976562 57.828125 36.550781 57.882812 37.128906 C 57.941406 37.707031 57.96875 38.289062 57.96875 38.871094 Z M 57.96875 38.871094 " fill-opacity="1" fill-rule="nonzero"/></g></svg>