<svg xmlns="http://www.w3.org/2000/svg" xmlns:xlink="http://www.w3.org/1999/xlink" width="80" zoomAndPan="magnify" viewBox="0 0 60 60" height="80" preserveAspectRatio="xMidYMid meet" version="1.0"><defs><clipPath id="6f3114e2fa"><path d="M 3.488281 6 L 56.738281 6 L 56.738281 53.988281 L 3.488281 53.988281 Z M 3.488281 6 " clip-rule="nonzero"/></clipPath></defs><g clip-path="url(#6f3114e2fa)"><path fill="#000000" d="M 50.398438 6.007812 L 9.824219 6.007812 C 9.410156 6.011719 8.996094 6.050781 8.589844 6.132812 C 8.183594 6.214844 7.785156 6.332031 7.402344 6.492188 C 7.015625 6.648438 6.652344 6.84375 6.304688 7.074219 C 5.960938 7.304688 5.640625 7.566406 5.34375 7.859375 C 5.050781 8.152344 4.789062 8.472656 4.558594 8.816406 C 4.324219 9.160156 4.128906 9.523438 3.972656 9.90625 C 3.8125 10.289062 3.691406 10.683594 3.609375 11.089844 C 3.527344 11.496094 3.488281 11.90625 3.488281 12.320312 L 3.488281 52.703125 C 3.488281 52.957031 3.558594 53.191406 3.699219 53.402344 C 3.84375 53.617188 4.03125 53.769531 4.269531 53.867188 C 4.507812 53.964844 4.75 53.988281 5 53.941406 C 5.253906 53.890625 5.46875 53.773438 5.652344 53.59375 L 15.421875 43.867188 L 50.398438 43.867188 C 50.8125 43.867188 51.226562 43.828125 51.632812 43.746094 C 52.042969 43.664062 52.4375 43.542969 52.820312 43.386719 C 53.207031 43.226562 53.570312 43.03125 53.917969 42.804688 C 54.261719 42.574219 54.582031 42.3125 54.878906 42.019531 C 55.171875 41.726562 55.433594 41.40625 55.667969 41.0625 C 55.898438 40.71875 56.09375 40.355469 56.253906 39.972656 C 56.410156 39.589844 56.53125 39.195312 56.613281 38.789062 C 56.695312 38.382812 56.734375 37.972656 56.738281 37.558594 L 56.738281 12.320312 C 56.734375 11.90625 56.695312 11.496094 56.613281 11.089844 C 56.53125 10.683594 56.410156 10.289062 56.253906 9.90625 C 56.09375 9.523438 55.898438 9.160156 55.667969 8.816406 C 55.433594 8.472656 55.171875 8.152344 54.878906 7.859375 C 54.582031 7.566406 54.261719 7.304688 53.917969 7.074219 C 53.570312 6.84375 53.207031 6.648438 52.820312 6.492188 C 52.4375 6.332031 52.042969 6.214844 51.632812 6.132812 C 51.226562 6.050781 50.8125 6.011719 50.398438 6.007812 Z M 54.199219 37.558594 C 54.199219 38.058594 54.105469 38.542969 53.910156 39.007812 C 53.71875 39.46875 53.441406 39.878906 53.085938 40.234375 C 52.730469 40.589844 52.316406 40.863281 51.851562 41.054688 C 51.386719 41.246094 50.902344 41.34375 50.398438 41.34375 L 14.898438 41.34375 C 14.546875 41.34375 14.25 41.46875 14 41.714844 L 6.023438 49.65625 L 6.023438 12.320312 C 6.023438 11.816406 6.121094 11.335938 6.3125 10.871094 C 6.507812 10.40625 6.78125 10 7.136719 9.644531 C 7.496094 9.289062 7.90625 9.015625 8.371094 8.824219 C 8.835938 8.628906 9.320312 8.535156 9.824219 8.535156 L 50.398438 8.535156 C 50.902344 8.535156 51.386719 8.628906 51.851562 8.824219 C 52.316406 9.015625 52.730469 9.289062 53.085938 9.644531 C 53.441406 10 53.71875 10.40625 53.910156 10.871094 C 54.105469 11.335938 54.199219 11.816406 54.199219 12.320312 Z M 46.59375 17.367188 C 46.59375 17.535156 46.5625 17.695312 46.496094 17.851562 C 46.433594 18.003906 46.339844 18.140625 46.222656 18.257812 C 46.105469 18.378906 45.964844 18.46875 45.8125 18.53125 C 45.65625 18.597656 45.492188 18.628906 45.324219 18.628906 L 14.898438 18.628906 C 14.730469 18.628906 14.566406 18.597656 14.414062 18.53125 C 14.257812 18.46875 14.121094 18.378906 14 18.257812 C 13.882812 18.140625 13.789062 18.003906 13.726562 17.851562 C 13.660156 17.695312 13.628906 17.535156 13.628906 17.367188 C 13.628906 17.199219 13.660156 17.039062 13.726562 16.882812 C 13.789062 16.730469 13.882812 16.59375 14 16.476562 C 14.121094 16.355469 14.257812 16.265625 14.414062 16.203125 C 14.566406 16.136719 14.730469 16.105469 14.898438 16.105469 L 45.324219 16.105469 C 45.492188 16.105469 45.65625 16.136719 45.8125 16.199219 C 45.964844 16.265625 46.105469 16.355469 46.222656 16.472656 C 46.339844 16.59375 46.433594 16.730469 46.496094 16.882812 C 46.5625 17.039062 46.59375 17.199219 46.59375 17.367188 Z M 46.59375 24.9375 C 46.59375 25.105469 46.5625 25.265625 46.496094 25.421875 C 46.433594 25.578125 46.339844 25.714844 46.222656 25.832031 C 46.105469 25.949219 45.964844 26.039062 45.8125 26.105469 C 45.65625 26.167969 45.492188 26.199219 45.324219 26.199219 L 14.898438 26.199219 C 14.730469 26.199219 14.566406 26.167969 14.414062 26.105469 C 14.257812 26.039062 14.121094 25.949219 14 25.832031 C 13.882812 25.714844 13.789062 25.578125 13.726562 25.421875 C 13.660156 25.265625 13.628906 25.105469 13.628906 24.9375 C 13.628906 24.773438 13.660156 24.609375 13.726562 24.457031 C 13.789062 24.300781 13.882812 24.164062 14 24.046875 C 14.121094 23.929688 14.257812 23.835938 14.414062 23.773438 C 14.566406 23.707031 14.730469 23.675781 14.898438 23.675781 L 45.324219 23.675781 C 45.492188 23.675781 45.65625 23.707031 45.8125 23.773438 C 45.964844 23.835938 46.105469 23.929688 46.222656 24.046875 C 46.339844 24.164062 46.433594 24.300781 46.496094 24.457031 C 46.5625 24.609375 46.59375 24.773438 46.59375 24.9375 Z M 46.59375 32.511719 C 46.59375 32.679688 46.5625 32.839844 46.496094 32.992188 C 46.433594 33.148438 46.339844 33.285156 46.222656 33.402344 C 46.105469 33.523438 45.964844 33.613281 45.8125 33.675781 C 45.65625 33.742188 45.492188 33.773438 45.324219 33.773438 L 14.898438 33.773438 C 14.730469 33.773438 14.566406 33.742188 14.414062 33.675781 C 14.257812 33.613281 14.121094 33.519531 14 33.402344 C 13.882812 33.285156 13.789062 33.148438 13.726562 32.992188 C 13.660156 32.839844 13.628906 32.679688 13.628906 32.511719 C 13.628906 32.34375 13.660156 32.183594 13.726562 32.027344 C 13.789062 31.875 13.882812 31.738281 14 31.617188 C 14.121094 31.5 14.257812 31.410156 14.414062 31.34375 C 14.566406 31.28125 14.730469 31.25 14.898438 31.25 L 45.324219 31.25 C 45.492188 31.25 45.65625 31.28125 45.8125 31.34375 C 45.964844 31.410156 46.105469 31.5 46.222656 31.617188 C 46.339844 31.738281 46.433594 31.871094 46.496094 32.027344 C 46.5625 32.183594 46.59375 32.34375 46.59375 32.511719 Z M 46.59375 32.511719 " fill-opacity="1" fill-rule="nonzero"/></g></svg>